<svg width="10" height="12" viewBox="0 0 10 12" fill="none" xmlns="http://www.w3.org/2000/svg">
<path d="M4.84615 0.017334C2.17398 0.017334 0 1.78666 0 3.96145C0 4.69623 0.250089 5.41332 0.723396 6.03544L4.5703 11.0808C4.64399 11.1774 4.77381 11.2361 4.91343 11.2361C4.91451 11.2361 4.91556 11.2361 4.91664 11.2361C5.05747 11.2352 5.18756 11.1747 5.25991 11.0764L9.00876 5.98215C9.45595 5.37318 9.69231 4.67443 9.69231 3.96145C9.69231 1.78666 7.51832 0.017334 4.84615 0.017334ZM8.31562 5.64466L4.90732 10.2761L1.40988 5.6891C1.01592 5.17128 0.802308 4.57388 0.802308 3.96145C0.802308 2.14913 2.61935 0.670304 4.84615 0.670304C7.07296 0.670304 8.88731 2.14913 8.88731 3.96145C8.88731 4.55571 8.68778 5.13784 8.31562 5.64466Z" fill="white"/>
<path d="M4.84618 1.98938C3.51009 1.98938 2.4231 2.87404 2.4231 3.96144C2.4231 5.04188 3.4924 5.93349 4.84618 5.93349C6.21664 5.93349 7.26926 5.03001 7.26926 3.96144C7.26926 2.87404 6.18226 1.98938 4.84618 1.98938ZM4.84618 5.28052C3.95079 5.28052 3.2254 4.68818 3.2254 3.96144C3.2254 3.23651 3.95545 2.64235 4.84618 2.64235C5.7369 2.64235 6.46426 3.23651 6.46426 3.96144C6.46426 4.67758 5.75575 5.28052 4.84618 5.28052Z" fill="white"/>
</svg>
